<svg width="81" height="38" viewBox="0 0 81 38" fill="none" xmlns="http://www.w3.org/2000/svg">
<g filter="url(#filter0_f_37_657)">
<path d="M77.5338 17.3839C82.0528 39.1779 74.688 35.8126 64.0164 35.8126C53.3449 35.8126 38.8887 25.8803 38.8887 17.3839C38.8887 8.88763 47.5397 2 58.2113 2C68.8828 2 77.5338 8.88763 77.5338 17.3839Z" fill="#1E90FF"/>
</g>
<path d="M6.656 21.088H2.944V26H1.152V14.832H2.944V19.584H6.656V14.832H8.448V26H6.656V21.088ZM10.8738 26V24.64H13.4978V16.192H10.8738V14.832H17.9138V16.192H15.2898V24.64H17.9138V26H10.8738ZM22.3075 26H20.5315V14.832H24.7075C25.7742 14.832 26.5848 15.1307 27.1395 15.728C27.7048 16.3253 27.9875 17.1467 27.9875 18.192C27.9875 19.0453 27.7795 19.7493 27.3635 20.304C26.9475 20.8587 26.3502 21.2 25.5715 21.328L28.1475 26H26.1635L23.7955 21.488H22.3075V26ZM24.4515 20.048C25.5608 20.048 26.1155 19.5413 26.1155 18.528V17.84C26.1155 16.8267 25.5608 16.32 24.4515 16.32H22.3075V20.048H24.4515ZM32.6853 26V21.792L28.9733 14.832H30.9733L32.3973 17.616L33.5493 20H33.6453L34.8133 17.616L36.2373 14.832H38.1892L34.4773 21.792V26H32.6853ZM41.239 17.408H41.095V26H39.527V14.832H41.831L45.111 23.424H45.255V14.832H46.823V26H44.519L41.239 17.408ZM50.8328 17.408H50.6888V26H49.1208V14.832H51.4248L54.7048 23.424H54.8488V14.832H56.4167V26H54.1128L50.8328 17.408ZM62.3625 26.16C61.8505 26.16 61.4878 26.0533 61.2745 25.84C61.0718 25.6267 60.9705 25.3653 60.9705 25.056V24.64C60.9705 24.3307 61.0718 24.0693 61.2745 23.856C61.4878 23.6427 61.8505 23.536 62.3625 23.536C62.8745 23.536 63.2318 23.6427 63.4345 23.856C63.6478 24.0693 63.7545 24.3307 63.7545 24.64V25.056C63.7545 25.3653 63.6478 25.6267 63.4345 25.84C63.2318 26.0533 62.8745 26.16 62.3625 26.16Z" fill="black"/>
<defs>
<filter id="filter0_f_37_657" x="36.8887" y="0" width="44" height="38" filterUnits="userSpaceOnUse" color-interpolation-filters="sRGB">
<feFlood flood-opacity="0" result="BackgroundImageFix"/>
<feBlend mode="normal" in="SourceGraphic" in2="BackgroundImageFix" result="shape"/>
<feGaussianBlur stdDeviation="1" result="effect1_foregroundBlur_37_657"/>
</filter>
</defs>
</svg>
