<svg width="24" height="24" viewBox="0 0 24 24" fill="none" xmlns="http://www.w3.org/2000/svg">
<path fill-rule="evenodd" clip-rule="evenodd" d="M10.6256 4.66861C9.0454 4.66861 7.52988 5.29636 6.41247 6.41376C5.29507 7.53117 4.66732 9.04669 4.66732 10.6269C4.66732 12.2072 5.29507 13.7227 6.41247 14.8401C7.52988 15.9575 9.0454 16.5853 10.6256 16.5853C12.2059 16.5853 13.7214 15.9575 14.8388 14.8401C15.9562 13.7227 16.584 12.2072 16.584 10.6269C16.584 9.04669 15.9562 7.53117 14.8388 6.41376C13.7214 5.29636 12.2059 4.66861 10.6256 4.66861ZM2.83398 10.6269C2.83409 9.38448 3.13132 8.16007 3.70087 7.05584C4.27042 5.95162 5.09578 4.99961 6.10809 4.27924C7.1204 3.55887 8.2903 3.09103 9.52019 2.91476C10.7501 2.73848 12.0043 2.85888 13.1782 3.2659C14.3521 3.67293 15.4116 4.35478 16.2684 5.25458C17.1252 6.15437 17.7544 7.246 18.1034 8.43841C18.4525 9.63082 18.5114 10.8894 18.2752 12.1092C18.0389 13.329 17.5144 14.4746 16.7453 15.4504L20.093 18.7981C20.26 18.971 20.3524 19.2025 20.3503 19.4429C20.3482 19.6832 20.2518 19.9132 20.0818 20.0831C19.9119 20.2531 19.6819 20.3495 19.4416 20.3516C19.2013 20.3536 18.9697 20.2613 18.7968 20.0943L15.4491 16.7466C14.3002 17.6523 12.9195 18.2162 11.4651 18.3738C10.0106 18.5314 8.54117 18.2763 7.2249 17.6378C5.90864 16.9993 4.79873 16.0031 4.0222 14.7632C3.24567 13.5233 2.83389 12.0899 2.83398 10.6269ZM9.70898 7.41861C9.70898 7.17549 9.80556 6.94234 9.97747 6.77043C10.1494 6.59852 10.3825 6.50194 10.6256 6.50194C11.7197 6.50194 12.7689 6.93654 13.5425 7.71013C14.3161 8.48371 14.7506 9.53292 14.7506 10.6269C14.7506 10.8701 14.6541 11.1032 14.4822 11.2751C14.3103 11.447 14.0771 11.5436 13.834 11.5436C13.5909 11.5436 13.3577 11.447 13.1858 11.2751C13.0139 11.1032 12.9173 10.8701 12.9173 10.6269C12.9173 10.0192 12.6759 9.43626 12.2461 9.00649C11.8163 8.57672 11.2334 8.33527 10.6256 8.33527C10.3825 8.33527 10.1494 8.2387 9.97747 8.06679C9.80556 7.89488 9.70898 7.66172 9.70898 7.41861Z" fill="#727983"/>
</svg>
