<svg width="79" height="38" viewBox="0 0 79 38" fill="none" xmlns="http://www.w3.org/2000/svg">
<g filter="url(#filter0_f_231_3124)">
<path d="M73.6452 17.3839C78.1642 39.1779 70.7993 35.8126 60.1278 35.8126C49.4562 35.8126 35 25.8803 35 17.3839C35 8.88763 43.651 2 54.3226 2C64.9942 2 73.6452 8.88763 73.6452 17.3839Z" fill="#FE1413"/>
</g>
<path d="M1.82 23.02C2.95333 24.1533 4.08667 24.72 5.22 24.72C5.80667 24.72 6.27333 24.5867 6.62 24.32C6.98 24.04 7.16 23.6867 7.16 23.26C7.16 22.82 6.94667 22.4533 6.52 22.16C6.09333 21.8533 5.57333 21.5867 4.96 21.36C4.36 21.1333 3.76 20.88 3.16 20.6C2.56 20.3067 2.04667 19.8933 1.62 19.36C1.19333 18.8267 0.98 18.18 0.98 17.42C0.98 16.22 1.48 15.1867 2.48 14.32C3.48 13.44 4.66667 13 6.04 13C6.66667 13 7.27333 13.0667 7.86 13.2C8.44667 13.3333 9.01333 13.5267 9.56 13.78L8.2 16.7C7.82667 16.4067 7.31333 16.14 6.66 15.9C6.02 15.6467 5.45333 15.52 4.96 15.52C4.48 15.52 4.08667 15.64 3.78 15.88C3.48667 16.1067 3.34 16.4133 3.34 16.8C3.34 17.1867 3.55333 17.5333 3.98 17.84C4.40667 18.1333 4.92 18.3933 5.52 18.62C6.13333 18.8467 6.74 19.1 7.34 19.38C7.95333 19.6467 8.47333 20.0467 8.9 20.58C9.32667 21.1133 9.54 21.76 9.54 22.52C9.54 23.7733 9.04 24.8733 8.04 25.82C7.04 26.7533 5.87333 27.22 4.54 27.22C3.54 27.22 2.65333 26.98 1.88 26.5C1.2 26.0867 0.72 25.72 0.44 25.4L0.26 25.18L1.82 23.02ZM18.9645 27.22C17.7645 27.22 16.7512 26.8533 15.9245 26.12C15.1112 25.3867 14.7045 24.48 14.7045 23.4L14.5045 13.6L17.3845 13.1L17.0645 21.86C17.0645 22.7933 17.2779 23.52 17.7045 24.04C18.1445 24.56 18.8179 24.82 19.7245 24.82C20.6312 24.82 21.2845 24.5667 21.6845 24.06C22.0845 23.5533 22.2845 22.68 22.2845 21.44L22.0445 13.6L24.8445 13.1L24.6245 21.9C24.6245 23.4733 24.0979 24.7533 23.0445 25.74C21.9912 26.7267 20.6312 27.22 18.9645 27.22ZM33.6978 13.1L33.4178 21.8L33.6578 27H30.8578L31.0978 22.14L30.8578 13.6L33.6978 13.1ZM38.3789 15.5L38.5989 13.2H48.0989L47.8789 15.5L44.3989 15.2L44.3189 21.8L44.5589 27H41.7589L41.9989 22.14L41.9189 15.22L38.3789 15.5ZM51.7914 25.66C51.7914 25.2333 51.9447 24.86 52.2514 24.54C52.5714 24.2067 52.9514 24.04 53.3914 24.04C54.2581 24.04 54.6914 24.48 54.6914 25.36C54.6914 25.8667 54.5314 26.2867 54.2114 26.62C53.9047 26.9533 53.5381 27.12 53.1114 27.12C52.6981 27.12 52.3714 26.9867 52.1314 26.72C51.9047 26.44 51.7914 26.0867 51.7914 25.66Z" fill="black"/>
<defs>
<filter id="filter0_f_231_3124" x="33" y="0" width="44" height="38" filterUnits="userSpaceOnUse" color-interpolation-filters="sRGB">
<feFlood flood-opacity="0" result="BackgroundImageFix"/>
<feBlend mode="normal" in="SourceGraphic" in2="BackgroundImageFix" result="shape"/>
<feGaussianBlur stdDeviation="1" result="effect1_foregroundBlur_231_3124"/>
</filter>
</defs>
</svg>
